<svg width="60" height="60" viewBox="0 0 60 60" fill="none" xmlns="http://www.w3.org/2000/svg">
<circle cx="30" cy="30" r="30" fill="#FF7236"/>
<mask id="path-2-outside-1_1518_21013" maskUnits="userSpaceOnUse" x="15.8125" y="16.75" width="29" height="27" fill="black">
<rect fill="white" x="15.8125" y="16.75" width="29" height="27"/>
<path fill-rule="evenodd" clip-rule="evenodd" d="M30.5233 18.7701C29.1566 18.9631 27.8235 19.8156 27.088 20.967C26.7082 21.5615 26.5264 22.2228 26.5322 22.9885C26.5415 24.229 26.9545 25.3755 27.9616 26.956C28.2391 27.3916 29.9045 29.9344 29.9277 29.9581C29.9474 29.9782 30.4729 29.6742 30.8127 29.4461C31.2638 29.1435 31.9314 28.444 32.1938 27.999C32.4575 27.5518 32.6793 26.9123 32.75 26.3951C32.7779 26.1909 32.8008 25.5824 32.8009 25.0428C32.8011 24.1541 32.8098 24.0475 32.8935 23.9101C33.1596 23.4738 33.7441 23.4563 34.0637 23.875L34.2004 24.0541L34.2163 25.09C34.2388 26.559 34.1037 27.3378 33.6636 28.2769C33.078 29.5267 32.1159 30.4405 30.5128 31.2697C29.8411 31.6172 29.5905 31.6638 29.3108 31.4933C29.2109 31.4323 28.7684 30.7965 27.883 29.4414C26.1373 26.7696 25.9947 26.5239 25.6038 25.5123C24.8756 23.6282 24.9224 21.8355 25.7355 20.4668C25.8422 20.2871 25.9183 20.129 25.9046 20.1152C25.865 20.0756 25.2305 20.1925 24.6762 20.3417C22.8346 20.8372 21.1823 21.907 19.9201 23.4212C18.8525 24.7019 18.1276 26.3728 17.8761 28.1328C17.7678 28.8911 17.8031 30.4951 17.9423 31.1383C18.2225 32.4331 18.6779 33.5136 19.4877 34.8047C19.9501 35.5419 20.185 36.0067 20.3408 36.4927C20.6005 37.3029 20.6202 37.4771 20.6501 39.2293C20.6769 40.8013 20.6826 40.8807 20.7774 41.0085C20.832 41.0822 20.9473 41.1905 21.0335 41.2492C21.1886 41.3548 21.2084 41.3559 22.8084 41.3558C24.3285 41.3556 24.4356 41.35 24.5781 41.2631C24.9062 41.0631 24.8983 41.1143 24.9246 39.0095L24.9483 37.1095H26.3717H27.7951L27.8188 39.0392L27.8426 40.9688L27.9612 41.0957C28.2039 41.3553 28.2085 41.3559 29.9445 41.3559C31.5348 41.3559 31.5549 41.3547 31.7117 41.2491C32.0079 41.0494 32.0347 40.9522 32.088 39.883C32.198 37.6757 32.5826 35.9085 33.3525 34.0729C33.6613 33.3366 34.5977 31.4871 34.6614 31.4876C34.77 31.4884 36.0466 31.7132 36.2431 31.7661C36.5714 31.8545 37.0309 32.1655 37.2728 32.4629C37.6731 32.9551 37.8041 33.4942 37.7736 34.5237C37.7538 35.1933 37.6997 35.3513 37.4341 35.5154C37.3236 35.5838 37.1943 35.6149 37.0213 35.6149C36.8089 35.6149 36.7299 35.5877 36.5169 35.441C36.2316 35.2445 35.9668 35.2118 35.7187 35.3425C35.6404 35.3836 35.0819 35.9156 34.4775 36.5244C33.2787 37.7321 33.2458 37.781 33.3647 38.1777C33.4884 38.5907 34.4279 39.2795 35.3312 39.6195C36.0895 39.9049 37.1902 39.9856 37.9961 39.8148C39.2216 39.5552 40.3497 38.7402 41.1399 37.5437C41.4965 37.0039 41.6806 36.6088 41.8961 35.9207L42.029 35.4963V30.6568C42.029 25.2922 42.0429 25.5566 41.7119 24.5837C41.0552 22.6533 39.459 21.054 37.5168 20.3804C36.819 20.1384 36.2705 20.0491 35.2992 20.0191L34.4054 19.9916L34.0419 19.7542C33.3399 19.2958 32.515 18.9457 31.8518 18.8248C31.4667 18.7547 30.8209 18.7281 30.5233 18.7701ZM37.4411 25.8268C37.6673 25.9958 37.7534 26.1565 37.7534 26.4103C37.7534 26.7825 37.4906 27.0676 37.1119 27.1061C36.3548 27.1832 36.0639 26.1523 36.7388 25.7836C36.9414 25.6729 37.2613 25.6926 37.4411 25.8268Z"/>
</mask>
<path d="M30.5233 18.7701L30.775 20.5524L30.775 20.5524L30.5233 18.7701ZM27.088 20.967L28.6049 21.936L28.6049 21.936L27.088 20.967ZM26.5322 22.9885L24.7322 23.002L24.7322 23.0021L26.5322 22.9885ZM27.9616 26.956L26.4435 27.9232L26.4435 27.9232L27.9616 26.956ZM29.9277 29.9581L31.2142 28.6991L31.212 28.697L29.9277 29.9581ZM30.8127 29.4461L29.8099 27.9514L29.8098 27.9514L30.8127 29.4461ZM32.1938 27.999L33.7442 28.9135L33.7443 28.9134L32.1938 27.999ZM32.75 26.3951L30.9666 26.1509L30.9665 26.1513L32.75 26.3951ZM32.8009 25.0428L34.6009 25.0432V25.0431L32.8009 25.0428ZM32.8935 23.9101L31.3567 22.973L31.3566 22.9731L32.8935 23.9101ZM34.0637 23.875L32.6327 24.967L32.6328 24.9671L34.0637 23.875ZM34.2004 24.0541L36.0002 24.0265L35.9911 23.4335L35.6312 22.9621L34.2004 24.0541ZM34.2163 25.09L36.0161 25.0624L36.0161 25.0624L34.2163 25.09ZM33.6636 28.2769L32.0337 27.5131L32.0337 27.5132L33.6636 28.2769ZM30.5128 31.2697L29.6858 29.671L29.6858 29.671L30.5128 31.2697ZM29.3108 31.4933L28.3736 33.03L28.3737 33.0301L29.3108 31.4933ZM27.883 29.4414L29.3899 28.4569L29.3899 28.4568L27.883 29.4414ZM25.6038 25.5123L27.2827 24.8634V24.8634L25.6038 25.5123ZM25.7355 20.4668L27.283 21.3861L27.2831 21.3861L25.7355 20.4668ZM25.9046 20.1152L24.6311 21.3873L24.6318 21.388L25.9046 20.1152ZM24.6762 20.3417L24.2086 18.6035L24.2085 18.6035L24.6762 20.3417ZM19.9201 23.4212L21.3027 24.5738L21.3027 24.5738L19.9201 23.4212ZM17.8761 28.1328L16.0942 27.8781L16.0942 27.8781L17.8761 28.1328ZM17.9423 31.1383L19.7015 30.7576L19.7015 30.7575L17.9423 31.1383ZM19.4877 34.8047L21.0127 33.8484L21.0126 33.8483L19.4877 34.8047ZM20.3408 36.4927L18.6267 37.0422L18.6267 37.0423L20.3408 36.4927ZM20.6501 39.2293L22.4499 39.1986L22.4499 39.1986L20.6501 39.2293ZM20.7774 41.0085L22.2232 39.9363L22.2231 39.9362L20.7774 41.0085ZM21.0335 41.2492L20.0204 42.737L20.0207 42.7372L21.0335 41.2492ZM22.8084 41.3558L22.8082 39.5558H22.8082L22.8084 41.3558ZM24.5781 41.2631L25.5151 42.8L25.5152 42.8L24.5781 41.2631ZM24.9246 39.0095L26.7245 39.032V39.032L24.9246 39.0095ZM24.9483 37.1095V35.3095H23.1707L23.1485 37.087L24.9483 37.1095ZM27.7951 37.1095L29.595 37.0874L29.5731 35.3095H27.7951V37.1095ZM27.8188 39.0392L26.019 39.0613L27.8188 39.0392ZM27.8426 40.9688L26.0427 40.991L26.0513 41.6883L26.5275 42.1979L27.8426 40.9688ZM27.9612 41.0957L26.6461 42.3248L26.6463 42.325L27.9612 41.0957ZM31.7117 41.2491L32.7174 42.7419L32.7177 42.7417L31.7117 41.2491ZM32.088 39.883L33.8858 39.9726V39.9726L32.088 39.883ZM33.3525 34.0729L35.0124 34.7692L35.0124 34.7691L33.3525 34.0729ZM34.6614 31.4876L34.648 33.2875L34.6481 33.2875L34.6614 31.4876ZM36.2431 31.7661L35.7751 33.5042L36.2431 31.7661ZM37.2728 32.4629L38.6694 31.3273L38.6694 31.3273L37.2728 32.4629ZM37.7736 34.5237L39.5728 34.577L39.5728 34.5769L37.7736 34.5237ZM37.4341 35.5154L36.4879 33.9843L36.4875 33.9844L37.4341 35.5154ZM36.5169 35.441L37.5381 33.9587L37.5378 33.9585L36.5169 35.441ZM35.7187 35.3425L36.5567 36.9355L36.5575 36.9351L35.7187 35.3425ZM34.4775 36.5244L35.755 37.7925L35.755 37.7924L34.4775 36.5244ZM33.3647 38.1777L31.6404 38.6943L31.6404 38.6943L33.3647 38.1777ZM35.3312 39.6195L35.9653 37.9349L35.9653 37.9348L35.3312 39.6195ZM37.9961 39.8148L38.3691 41.5758L38.3692 41.5757L37.9961 39.8148ZM41.1399 37.5437L39.638 36.5517L39.638 36.5518L41.1399 37.5437ZM41.8961 35.9207L40.1784 35.3826L40.1784 35.3827L41.8961 35.9207ZM42.029 35.4963L43.7467 36.0344L43.829 35.7717V35.4963H42.029ZM41.7119 24.5837L40.0078 25.1633L40.0078 25.1633L41.7119 24.5837ZM37.5168 20.3804L38.1066 18.6798L38.1066 18.6798L37.5168 20.3804ZM35.2992 20.0191L35.2438 21.8183L35.2438 21.8183L35.2992 20.0191ZM34.4054 19.9916L33.4212 21.4987L33.8445 21.7751L34.3499 21.7907L34.4054 19.9916ZM34.0419 19.7542L33.0577 21.2613L33.0578 21.2614L34.0419 19.7542ZM31.8518 18.8248L32.1746 17.054L32.1745 17.054L31.8518 18.8248ZM37.4411 25.8268L36.3641 27.2691L36.3642 27.2692L37.4411 25.8268ZM37.1119 27.1061L37.2943 28.8969L37.2943 28.8969L37.1119 27.1061ZM36.7388 25.7836L37.6018 27.3632L37.6019 27.3632L36.7388 25.7836ZM30.2716 16.9878C28.3908 17.2534 26.5928 18.3986 25.5711 19.9979L28.6049 21.936C29.0543 21.2326 29.9223 20.6728 30.775 20.5524L30.2716 16.9878ZM25.5711 19.9979C24.988 20.9108 24.7241 21.9193 24.7322 23.002L28.3321 22.975C28.3287 22.5262 28.4285 22.2122 28.6049 21.936L25.5711 19.9979ZM24.7322 23.0021C24.7451 24.7116 25.3411 26.193 26.4435 27.9232L29.4796 25.9887C28.568 24.558 28.3379 23.7465 28.3321 22.9749L24.7322 23.0021ZM26.4435 27.9232C26.5899 28.1529 27.0831 28.9089 27.5342 29.5977C27.7616 29.945 27.9816 30.2802 28.1466 30.5306C28.2289 30.6555 28.2986 30.761 28.3491 30.8368C28.3739 30.8742 28.3962 30.9076 28.4137 30.9335C28.4219 30.9456 28.4326 30.9614 28.4435 30.977C28.4483 30.984 28.4585 30.9985 28.471 31.0156C28.4769 31.0237 28.4892 31.0405 28.5052 31.0611C28.5056 31.0616 28.5624 31.1368 28.6434 31.2193L31.212 28.697C31.2621 28.7479 31.2979 28.7906 31.3107 28.806C31.3277 28.8265 31.3409 28.8433 31.3486 28.8531C31.3638 28.8728 31.3752 28.8883 31.3799 28.8948C31.3901 28.9087 31.3972 28.9189 31.3982 28.9203C31.4014 28.9249 31.4014 28.925 31.3961 28.9171C31.3865 28.9029 31.3703 28.8788 31.3469 28.8435C31.3007 28.7741 31.2343 28.6737 31.1529 28.55C30.9904 28.3034 30.7723 27.9712 30.5458 27.6253C30.0891 26.9279 29.6108 26.1947 29.4796 25.9887L26.4435 27.9232ZM28.6413 31.2172C29.169 31.7563 29.8064 31.7586 29.9238 31.7591C30.1288 31.7599 30.2873 31.725 30.3498 31.7103C30.4894 31.6774 30.5967 31.6344 30.6322 31.62C30.723 31.5833 30.802 31.5438 30.8444 31.5221C30.9425 31.4721 31.0517 31.411 31.1516 31.3532C31.3546 31.2357 31.6059 31.0816 31.8156 30.9409L29.8098 27.9514C29.6797 28.0387 29.4983 28.1506 29.3487 28.2372C29.2723 28.2814 29.2252 28.3068 29.2087 28.3152C29.1937 28.3228 29.2258 28.3055 29.2827 28.2825C29.3014 28.275 29.395 28.2367 29.5246 28.2061C29.5821 28.1926 29.7364 28.1583 29.9383 28.1591C30.0425 28.1595 30.2161 28.1691 30.4217 28.2276C30.629 28.2866 30.9363 28.4152 31.2142 28.6991L28.6413 31.2172ZM31.8155 30.9409C32.1931 30.6876 32.5749 30.3344 32.8762 30.0187C33.1742 29.7064 33.5126 29.3062 33.7442 28.9135L30.6434 27.0846C30.6126 27.1368 30.486 27.3089 30.2718 27.5333C30.061 27.7542 29.8834 27.9021 29.8099 27.9514L31.8155 30.9409ZM33.7443 28.9134C34.1301 28.2592 34.4305 27.3915 34.5334 26.6388L30.9665 26.1513C30.928 26.4331 30.7849 26.8445 30.6433 27.0847L33.7443 28.9134ZM34.5333 26.6392C34.58 26.2979 34.6008 25.5746 34.6009 25.0432L31.0009 25.0425C31.0009 25.2894 30.9956 25.5539 30.9872 25.777C30.983 25.8884 30.9782 25.9837 30.9734 26.0576C30.968 26.1419 30.9645 26.1659 30.9666 26.1509L34.5333 26.6392ZM34.6009 25.0431C34.6009 24.821 34.6015 24.6601 34.6034 24.5384C34.6054 24.4119 34.6085 24.3584 34.6099 24.3414C34.6113 24.3235 34.6069 24.4035 34.5718 24.524C34.5528 24.5892 34.5282 24.655 34.4984 24.7191C34.4698 24.7807 34.4434 24.8258 34.4304 24.8471L31.3566 22.9731C31.1316 23.3422 31.0508 23.6938 31.0219 24.048C31.0018 24.2933 31.001 24.6286 31.0009 25.0425L34.6009 25.0431ZM34.4303 24.8472C34.2459 25.1496 33.9002 25.3595 33.5125 25.3711C33.1321 25.3825 32.8129 25.2031 32.6327 24.967L35.4946 22.783C34.4643 21.4329 32.3307 21.3757 31.3567 22.973L34.4303 24.8472ZM32.6328 24.9671L32.7695 25.1462L35.6312 22.9621L35.4945 22.7829L32.6328 24.9671ZM32.4006 24.0818L32.4165 25.1176L36.0161 25.0624L36.0002 24.0265L32.4006 24.0818ZM32.4165 25.1176C32.4364 26.4197 32.3199 26.9025 32.0337 27.5131L35.2935 29.0408C35.8876 27.7731 36.0411 26.6984 36.0161 25.0624L32.4165 25.1176ZM32.0337 27.5132C31.6618 28.3067 31.0453 28.9678 29.6858 29.671L31.3397 32.8685C33.1865 31.9133 34.4942 30.7467 35.2936 29.0407L32.0337 27.5132ZM29.6858 29.671C29.5384 29.7472 29.4479 29.7892 29.3933 29.8118C29.336 29.8354 29.3596 29.8202 29.4357 29.8061C29.5258 29.7893 29.6783 29.776 29.8641 29.8119C30.0485 29.8476 30.1808 29.9155 30.248 29.9564L28.3737 33.0301C28.872 33.3339 29.4529 33.4646 30.0939 33.3454C30.5648 33.2578 31.0068 33.0407 31.3398 32.8685L29.6858 29.671ZM30.2481 29.9565C30.391 30.0437 30.4851 30.1301 30.5151 30.1581C30.5555 30.1958 30.5823 30.225 30.5921 30.2358C30.6114 30.2571 30.6133 30.2613 30.5919 30.2337C30.5511 30.1812 30.4796 30.0835 30.369 29.9245C30.1508 29.6111 29.8307 29.1314 29.3899 28.4569L26.3762 30.426C26.8208 31.1065 27.1646 31.6223 27.414 31.9808C27.5371 32.1577 27.6503 32.3152 27.7483 32.4414C27.7962 32.5031 27.8561 32.5775 27.9221 32.6506C27.9474 32.6786 28.1169 32.8734 28.3736 33.03L30.2481 29.9565ZM29.3899 28.4568C27.6278 25.76 27.5942 25.6694 27.2827 24.8634L23.9248 26.1612C24.3952 27.3784 24.6467 27.7792 26.3762 30.426L29.3899 28.4568ZM27.2827 24.8634C26.6951 23.3429 26.8257 22.1559 27.283 21.3861L24.188 19.5474C23.019 21.5151 23.056 23.9134 23.9248 26.1612L27.2827 24.8634ZM27.2831 21.3861C27.3554 21.2643 27.428 21.1324 27.4873 21.0091C27.5134 20.9549 27.5579 20.8592 27.5972 20.7473C27.6134 20.7012 27.656 20.5773 27.6822 20.4168C27.6946 20.3409 27.7177 20.1743 27.6994 19.9638C27.6849 19.7967 27.62 19.285 27.1774 18.8425L24.6318 21.388C24.191 20.9472 24.1271 20.4384 24.1129 20.2751C24.095 20.0686 24.1178 19.907 24.1292 19.8371C24.1534 19.6885 24.1914 19.5806 24.2008 19.5541C24.2157 19.5116 24.2283 19.4819 24.2332 19.4704C24.2391 19.4569 24.2428 19.4492 24.2432 19.4485C24.2436 19.4475 24.2388 19.4574 24.2277 19.4778C24.2172 19.4972 24.2037 19.5211 24.188 19.5475L27.2831 21.3861ZM27.1782 18.8432C26.7586 18.4231 26.2669 18.3487 26.2175 18.3396C26.0691 18.3122 25.9468 18.3085 25.8881 18.3076C25.7614 18.3059 25.65 18.3161 25.5865 18.3227C25.4458 18.3374 25.2936 18.3623 25.1571 18.3875C24.8755 18.4394 24.5312 18.5167 24.2086 18.6035L25.1439 22.0798C25.3756 22.0175 25.6256 21.9618 25.8097 21.9278C25.8541 21.9196 25.8908 21.9135 25.9191 21.9091C25.949 21.9045 25.9621 21.9031 25.9613 21.9031C25.9605 21.9032 25.951 21.9042 25.9345 21.9052C25.9201 21.9061 25.8857 21.908 25.8384 21.9073C25.8018 21.9068 25.6978 21.9045 25.5633 21.8796C25.4949 21.867 25.378 21.8413 25.2394 21.7867C25.1131 21.737 24.868 21.6245 24.6311 21.3873L27.1782 18.8432ZM24.2085 18.6035C21.9963 19.1987 20.0286 20.4799 18.5374 22.2687L21.3027 24.5738C22.336 23.3341 23.6729 22.4756 25.1439 22.0798L24.2085 18.6035ZM18.5375 22.2687C17.2417 23.823 16.3897 25.8105 16.0942 27.8781L19.658 28.3874C19.8656 26.9351 20.4632 25.5808 21.3027 24.5738L18.5375 22.2687ZM16.0942 27.8781C16.0193 28.4027 16.0034 29.1083 16.0168 29.7183C16.0299 30.3131 16.0749 31.0196 16.183 31.5191L19.7015 30.7575C19.6704 30.6139 19.6282 30.1967 19.6159 29.6391C19.604 29.0968 19.6246 28.6212 19.658 28.3874L16.0942 27.8781ZM16.183 31.519C16.5135 33.0461 17.0585 34.3193 17.9629 35.7612L21.0126 33.8483C20.2973 32.7078 19.9315 31.8202 19.7015 30.7576L16.183 31.519ZM17.9628 35.7611C18.3929 36.4469 18.5378 36.7648 18.6267 37.0422L22.0548 35.9431C21.8322 35.2486 21.5072 34.6369 21.0127 33.8484L17.9628 35.7611ZM18.6267 37.0423C18.7459 37.4141 18.7722 37.5253 18.793 37.7099C18.8224 37.9695 18.8349 38.3538 18.8504 39.26L22.4499 39.1986C22.4354 38.3526 22.4232 37.7738 22.3703 37.3056C22.3089 36.7625 22.1954 36.3815 22.0548 35.9431L18.6267 37.0423ZM18.8504 39.26C18.8633 40.0164 18.8718 40.4943 18.8928 40.7889C18.903 40.9313 18.9229 41.1556 18.9906 41.3923C19.0828 41.7149 19.2262 41.9386 19.3317 42.0809L22.2231 39.9362C22.2345 39.9515 22.284 40.0185 22.3355 40.1155C22.3901 40.2182 22.4274 40.3169 22.452 40.403C22.4911 40.5397 22.4901 40.622 22.4837 40.532C22.4786 40.4606 22.4731 40.335 22.4674 40.1074C22.4619 39.8854 22.4566 39.593 22.4499 39.1986L18.8504 39.26ZM19.3316 42.0808C19.5216 42.337 19.7906 42.5805 20.0204 42.737L22.0467 39.7614C22.0802 39.7842 22.1009 39.8009 22.1081 39.8069C22.1168 39.814 22.1223 39.8191 22.1262 39.8226C22.1298 39.826 22.1375 39.8334 22.1493 39.8462C22.1585 39.8561 22.1866 39.8869 22.2232 39.9363L19.3316 42.0808ZM20.0207 42.7372C20.0831 42.7797 20.3004 42.932 20.6226 43.031C20.8824 43.1108 21.1236 43.13 21.2713 43.1389C21.5652 43.1565 22.0462 43.1558 22.8086 43.1558L22.8082 39.5558C22.4057 39.5558 22.1123 39.5558 21.8915 39.5541C21.6637 39.5524 21.5478 39.549 21.487 39.5454C21.4104 39.5408 21.5176 39.5399 21.68 39.5898C21.7781 39.62 21.8705 39.66 21.9532 39.7053C22.0202 39.7419 22.0685 39.7762 22.0463 39.7612L20.0207 42.7372ZM22.8086 43.1558C23.5427 43.1557 24.0099 43.1549 24.3039 43.1395C24.4501 43.1319 24.6546 43.1168 24.8699 43.0658C25.1504 42.9994 25.3596 42.8948 25.5151 42.8L23.641 39.7263C23.6634 39.7126 23.7237 39.6769 23.8075 39.6406C23.8938 39.6032 23.9737 39.5785 24.0405 39.5627C24.1481 39.5372 24.2042 39.5398 24.1158 39.5444C24.0403 39.5484 23.9132 39.5516 23.691 39.5535C23.4736 39.5553 23.1892 39.5557 22.8082 39.5558L22.8086 43.1558ZM25.5152 42.8C25.5182 42.7981 25.6263 42.7342 25.7181 42.67C25.8334 42.5893 26.0007 42.458 26.1623 42.2597C26.5032 41.8414 26.6023 41.3931 26.6436 41.1242C26.711 40.6862 26.7126 39.9841 26.7245 39.032L23.1248 38.9871C23.1181 39.5215 23.1138 39.8949 23.1062 40.172C23.1025 40.3087 23.0982 40.4075 23.0936 40.4801C23.0888 40.5552 23.0849 40.5809 23.0855 40.577C23.0858 40.575 23.0962 40.5036 23.1347 40.3983C23.1781 40.2798 23.2519 40.1324 23.3716 39.9855C23.4874 39.8434 23.6013 39.7574 23.6541 39.7204C23.6834 39.6999 23.7199 39.6782 23.641 39.7263L25.5152 42.8ZM26.7245 39.032L26.7482 37.132L23.1485 37.087L23.1248 38.9871L26.7245 39.032ZM24.9483 38.9095H26.3717V35.3095H24.9483V38.9095ZM26.3717 38.9095H27.7951V35.3095H26.3717V38.9095ZM25.9953 37.1316L26.019 39.0613L29.6187 39.0171L29.595 37.0874L25.9953 37.1316ZM26.019 39.0613L26.0427 40.991L29.6424 40.9467L29.6187 39.0171L26.019 39.0613ZM26.5275 42.1979L26.6461 42.3248L29.2763 39.8667L29.1576 39.7398L26.5275 42.1979ZM26.6463 42.325C26.6747 42.3554 26.8909 42.6043 27.2116 42.7944C27.5639 43.0032 27.9083 43.075 28.1587 43.1079C28.5576 43.1602 29.1588 43.1559 29.9445 43.1559V39.5559C29.5043 39.5559 29.1961 39.5559 28.9662 39.552C28.853 39.5502 28.771 39.5476 28.7106 39.5444C28.6488 39.5413 28.6258 39.5383 28.627 39.5385C28.6289 39.5387 28.8181 39.5618 29.0471 39.6975C29.1549 39.7613 29.2305 39.826 29.2704 39.8631C29.2983 39.889 29.3156 39.9088 29.276 39.8665L26.6463 42.325ZM29.9445 43.1559C30.702 43.1559 31.1809 43.1566 31.4744 43.1388C31.6226 43.1299 31.8625 43.1105 32.1212 43.0311C32.4398 42.9333 32.6555 42.7836 32.7174 42.7419L30.7061 39.7562C30.6839 39.7711 30.731 39.7381 30.7964 39.7025C30.8772 39.6586 30.9681 39.6193 31.0649 39.5896C31.226 39.5401 31.3321 39.5409 31.257 39.5454C31.1969 39.549 31.0819 39.5524 30.8556 39.5542C30.6361 39.5559 30.3446 39.5559 29.9445 39.5559V43.1559ZM32.7177 42.7417C32.8173 42.6746 33.0533 42.5146 33.2697 42.2553C33.5125 41.9645 33.648 41.6544 33.7263 41.3701C33.8421 40.9498 33.8636 40.418 33.8858 39.9726L30.2902 39.7934C30.2768 40.0632 30.2666 40.2361 30.2556 40.3581C30.2504 40.4164 30.2462 40.4475 30.2442 40.4607C30.2422 40.4744 30.2444 40.4546 30.2556 40.4141C30.2673 40.3716 30.2906 40.2994 30.3341 40.2118C30.3794 40.1203 30.4373 40.0307 30.5062 39.9482C30.5728 39.8684 30.6342 39.8138 30.6716 39.7832C30.7049 39.756 30.7243 39.7439 30.7057 39.7564L32.7177 42.7417ZM33.8858 39.9726C33.9865 37.9511 34.3317 36.392 35.0124 34.7692L31.6926 33.3767C30.8334 35.425 30.4095 37.4004 30.2902 39.7934L33.8858 39.9726ZM35.0124 34.7691C35.1406 34.4634 35.4275 33.8646 35.7048 33.317C35.8406 33.0487 35.9631 32.8145 36.0509 32.6547C36.0971 32.5708 36.1217 32.5292 36.1282 32.5187C36.1352 32.5074 36.1132 32.5444 36.0716 32.5991C36.0553 32.6204 35.9948 32.6998 35.9002 32.7906C35.8545 32.8346 35.7557 32.9254 35.6115 33.0155C35.5025 33.0836 35.152 33.2913 34.648 33.2875L34.6748 29.6876C34.1688 29.6839 33.8159 29.8925 33.7041 29.9623C33.557 30.0542 33.455 30.1477 33.4056 30.1951C33.3038 30.293 33.2343 30.3828 33.2076 30.4178C33.1451 30.4999 33.0962 30.5772 33.0709 30.618C33.0128 30.7114 32.9514 30.82 32.896 30.9209C32.7806 31.1307 32.6378 31.4049 32.493 31.6909C32.2089 32.252 31.8732 32.9461 31.6926 33.3767L35.0124 34.7691ZM34.6481 33.2875C34.588 33.2871 34.5431 33.2835 34.5308 33.2825C34.5126 33.2811 34.5002 33.2797 34.4965 33.2793C34.4893 33.2785 34.4909 33.2786 34.5056 33.2806C34.5337 33.2845 34.5796 33.2914 34.6432 33.3015C34.7686 33.3215 34.9344 33.3496 35.1072 33.38C35.2796 33.4104 35.4518 33.4418 35.5899 33.4683C35.6593 33.4815 35.7156 33.4927 35.7568 33.5013C35.8107 33.5125 35.8062 33.5126 35.7751 33.5042L36.7111 30.028C36.5158 29.9754 36.0482 29.8903 35.7315 29.8346C35.5469 29.8021 35.3609 29.7705 35.2103 29.7465C35.1359 29.7346 35.0627 29.7234 34.9995 29.7146C34.9929 29.7137 34.8312 29.6888 34.6748 29.6876L34.6481 33.2875ZM35.7751 33.5042C35.7406 33.4949 35.7189 33.4867 35.7109 33.4835C35.7023 33.4801 35.7012 33.4793 35.7074 33.4823C35.721 33.4891 35.7476 33.5038 35.7815 33.5268C35.8151 33.5496 35.8448 33.5728 35.8669 33.5922C35.8908 33.6133 35.8915 33.6172 35.8763 33.5986L38.6694 31.3273C38.409 31.0071 38.0888 30.7414 37.7992 30.5454C37.519 30.3558 37.1365 30.1425 36.7111 30.028L35.7751 33.5042ZM35.8763 33.5986C35.9139 33.6449 35.9223 33.6618 35.9357 33.7169C35.9595 33.8149 35.9877 34.023 35.9744 34.4704L39.5728 34.5769C39.6086 33.3678 39.4676 32.3088 38.6694 31.3273L35.8763 33.5986ZM35.9744 34.4704C35.9699 34.6239 35.9644 34.7041 35.9599 34.7454C35.9551 34.7896 35.9572 34.7308 35.993 34.6262C36.0367 34.4987 36.1167 34.3416 36.2475 34.1936C36.3654 34.0601 36.4733 33.9933 36.4879 33.9843L38.3804 37.0466C38.7514 36.8174 39.1765 36.4422 39.399 35.792C39.5499 35.3512 39.564 34.8744 39.5728 34.577L35.9744 34.4704ZM36.4875 33.9844C36.6024 33.9134 36.7209 33.8671 36.8295 33.8409C36.9309 33.8164 37.0019 33.8149 37.0213 33.8149V37.4149C37.4207 37.4149 37.9062 37.3398 38.3807 37.0464L36.4875 33.9844ZM37.0213 33.8149C36.9834 33.8149 37.1468 33.8091 37.3561 33.8813C37.4504 33.9138 37.5169 33.9491 37.5472 33.9663C37.5717 33.9803 37.5752 33.9842 37.5381 33.9587L35.4957 36.9232C35.6172 37.0069 35.8614 37.1739 36.1825 37.2847C36.5377 37.4071 36.8468 37.4149 37.0213 37.4149V33.8149ZM37.5378 33.9585C36.8559 33.4889 35.8697 33.2285 34.8799 33.7498L36.5575 36.9351C36.3734 37.032 36.1336 37.0863 35.8833 37.0555C35.6564 37.0275 35.5234 36.9423 35.4959 36.9234L37.5378 33.9585ZM34.8807 33.7494C34.682 33.8539 34.527 33.9876 34.5249 33.9894C34.4731 34.0319 34.4214 34.0773 34.3762 34.1177C34.2837 34.2005 34.1727 34.3041 34.054 34.4171C33.8144 34.6452 33.5115 34.9426 33.2 35.2563L35.755 37.7924C36.0479 37.4974 36.3264 37.2243 36.5367 37.024C36.643 36.9228 36.724 36.8477 36.7772 36.8001C36.8048 36.7753 36.8143 36.7676 36.8104 36.7708C36.8088 36.7721 36.7931 36.785 36.7679 36.8037C36.7588 36.8104 36.6767 36.8724 36.5567 36.9355L34.8807 33.7494ZM33.2 35.2563C32.6759 35.7844 32.1989 36.2561 31.9337 36.6501C31.7573 36.9122 31.5562 37.2996 31.5236 37.8061C31.495 38.2491 31.6171 38.6166 31.6404 38.6943L35.0889 37.6611C35.0753 37.6156 35.0856 37.6449 35.0958 37.6974C35.1084 37.7619 35.1261 37.8827 35.1161 38.0376C35.0937 38.3856 34.9534 38.611 34.9202 38.6603C34.9064 38.6808 34.9074 38.6764 34.9399 38.6381C34.9712 38.6012 35.0193 38.5474 35.0926 38.4694C35.2424 38.31 35.4508 38.0989 35.755 37.7925L33.2 35.2563ZM31.6404 38.6943C31.7911 39.1973 32.0997 39.5633 32.282 39.7585C32.4985 39.9901 32.7472 40.1986 32.9913 40.3776C33.4775 40.734 34.0818 41.0725 34.6971 41.3041L35.9653 37.9348C35.6773 37.8265 35.3602 37.6505 35.1199 37.4743C35.0008 37.387 34.9349 37.3246 34.9122 37.3003C34.9017 37.2891 34.9177 37.3043 34.9459 37.3467C34.9702 37.3832 35.0378 37.4905 35.0889 37.6611L31.6404 38.6943ZM34.6971 41.3041C35.7826 41.7127 37.2332 41.8164 38.3691 41.5758L37.6231 38.0539C37.1473 38.1547 36.3963 38.0971 35.9653 37.9349L34.6971 41.3041ZM38.3692 41.5757C40.1252 41.2037 41.6319 40.065 42.6419 38.5357L39.638 36.5518C39.0675 37.4154 38.318 37.9067 37.623 38.0539L38.3692 41.5757ZM42.6419 38.5357C43.1011 37.8404 43.3536 37.2894 43.6138 36.4587L40.1784 35.3827C40.0075 35.9283 39.8918 36.1674 39.638 36.5517L42.6419 38.5357ZM43.6138 36.4588L43.7467 36.0344L40.3114 34.9582L40.1784 35.3826L43.6138 36.4588ZM43.829 35.4963V30.6568H40.229V35.4963H43.829ZM43.829 30.6568C43.829 28.0134 43.8332 26.6669 43.7921 25.8795C43.7703 25.4613 43.7328 25.1208 43.6549 24.7835C43.5834 24.4741 43.4797 24.1912 43.416 24.004L40.0078 25.1633C40.1096 25.4626 40.1282 25.5115 40.1473 25.5939C40.1598 25.6483 40.1809 25.7594 40.197 26.0673C40.2317 26.732 40.229 27.9356 40.229 30.6568H43.829ZM43.416 24.004C42.5789 21.5431 40.5682 19.5335 38.1066 18.6798L36.9271 22.0811C38.3499 22.5745 39.5316 23.7635 40.0078 25.1633L43.416 24.004ZM38.1066 18.6798C37.1922 18.3627 36.4541 18.2539 35.3547 18.22L35.2438 21.8183C36.0868 21.8443 36.4458 21.9142 36.9271 22.0811L38.1066 18.6798ZM35.3547 18.22L34.4608 18.1924L34.3499 21.7907L35.2438 21.8183L35.3547 18.22ZM35.3895 18.4844L35.0261 18.2471L33.0578 21.2614L33.4212 21.4987L35.3895 18.4844ZM35.0261 18.2471C34.1707 17.6885 33.1235 17.227 32.1746 17.054L31.529 20.5957C31.9064 20.6645 32.509 20.903 33.0577 21.2613L35.0261 18.2471ZM32.1745 17.054C31.6539 16.9591 30.8078 16.912 30.2716 16.9878L30.775 20.5524C30.7501 20.5559 30.7673 20.5522 30.8408 20.5506C30.9056 20.5492 30.9882 20.5501 31.0806 20.5539C31.278 20.562 31.4465 20.5806 31.5291 20.5957L32.1745 17.054ZM36.3642 27.2692C36.3512 27.2595 36.2119 27.1543 36.0952 26.9363C35.9704 26.7032 35.9534 26.4964 35.9534 26.4103H39.5534C39.5534 26.0705 39.4934 25.6564 39.269 25.2372C39.0527 24.8331 38.7571 24.5631 38.518 24.3845L36.3642 27.2692ZM35.9534 26.4103C35.9534 26.1601 36.0473 25.8845 36.2513 25.6632C36.4536 25.4437 36.708 25.338 36.9295 25.3154L37.2943 28.8969C38.5587 28.7681 39.5534 27.7387 39.5534 26.4103H35.9534ZM36.9295 25.3154C37.1796 25.2899 37.4691 25.3579 37.7131 25.5392C37.9379 25.7064 38.0645 25.9241 38.1207 26.1233C38.2352 26.529 38.0951 27.0937 37.6018 27.3632L35.8757 24.204C34.7077 24.8422 34.3755 26.1067 34.656 27.1008C34.9397 28.1064 35.9182 29.037 37.2943 28.8969L36.9295 25.3154ZM37.6019 27.3632C37.3397 27.5065 37.115 27.5178 36.9879 27.5099C36.8645 27.5024 36.6248 27.4638 36.3641 27.2691L38.518 24.3846C38.0775 24.0556 37.588 23.9401 37.2091 23.9167C36.8265 23.8932 36.3405 23.95 35.8756 24.2041L37.6019 27.3632Z" fill="white" mask="url(#path-2-outside-1_1518_21013)"/>
<circle cx="37.7336" cy="26.0703" r="0.978012" fill="white"/>
</svg>
