<svg width="64" height="64" viewBox="0 0 64 64" fill="none" xmlns="http://www.w3.org/2000/svg">
<circle cx="32" cy="32" r="32" fill="#FF4C42"/>
<path fill-rule="evenodd" clip-rule="evenodd" d="M23.9557 19.875H40.0441C40.366 19.8754 40.6824 19.958 40.9633 20.1151C41.244 20.272 41.48 20.4981 41.6489 20.7718C41.649 20.772 41.6491 20.7722 41.6492 20.7724L45.7776 27.4363C45.981 27.7653 46.0795 28.1484 46.0599 28.5347C46.0403 28.921 45.9036 29.2922 45.668 29.599L45.667 29.6004L33.4955 45.3872C33.4953 45.3875 33.495 45.3879 33.4948 45.3882C33.3189 45.6172 33.0927 45.8027 32.8337 45.9304C32.5744 46.0584 32.2891 46.1249 31.9999 46.1249C31.7107 46.1249 31.4254 46.0584 31.1661 45.9304C30.9071 45.8027 30.681 45.6172 30.5051 45.3882C30.5048 45.3879 30.5046 45.3875 30.5043 45.3872L18.3328 29.6004L18.3318 29.599C18.0962 29.2922 17.9595 28.921 17.9399 28.5347C17.9204 28.1484 18.0188 27.7653 18.2222 27.4363L22.3506 20.7724C22.3509 20.772 22.3511 20.7717 22.3513 20.7713C22.5201 20.4978 22.756 20.2719 23.0365 20.1151C23.3174 19.958 23.6338 19.8754 23.9557 19.875ZM23.1183 23.0936L20.4659 27.375H24.9532L23.1183 23.0936ZM28.2499 27.375L31.9999 22.375L35.7499 27.375H28.2499ZM36.2999 29.25L31.9999 41.4332L27.7 29.25H36.2999ZM25.7116 29.25L30.1705 41.8834L20.4303 29.25H25.7116ZM33.8294 41.8834L38.2882 29.25H43.5695L33.8294 41.8834ZM43.534 27.375L40.8816 23.0936L39.0467 27.375H43.534ZM37.402 26.4528L39.4174 21.75H33.8749L37.402 26.4528ZM30.1249 21.75H24.5824L26.5978 26.4528L30.1249 21.75Z" fill="white"/>
</svg>
