<svg width="64" height="64" viewBox="0 0 64 64" fill="none" xmlns="http://www.w3.org/2000/svg">
<circle cx="32" cy="32" r="32" fill="#C362F5"/>
<path fill-rule="evenodd" clip-rule="evenodd" d="M22.453 20.5264C21.3889 20.5264 20.5264 21.3889 20.5264 22.453V24.8612H18.875V22.453C18.875 20.4769 20.4769 18.875 22.453 18.875H24.8612V20.5264H22.453ZM31.2833 20.5264H26.4667V18.875H31.2833V20.5264ZM35.297 20.5264H32.8888V18.875H35.297C37.2731 18.875 38.875 20.4769 38.875 22.453V25.7702H37.2236V22.453C37.2236 21.3889 36.3611 20.5264 35.297 20.5264ZM20.5264 26.4667V31.2833H18.875V26.4667H20.5264ZM20.5264 32.8888V35.297C20.5264 36.3611 21.3889 37.2236 22.453 37.2236H25.6328V38.875H22.453C20.4769 38.875 18.875 37.2731 18.875 35.297V32.8888H20.5264Z" fill="white"/>
<rect x="26.025" y="26.025" width="18.2" height="18.2" rx="2.1" stroke="white" stroke-width="1.8"/>
</svg>
