<svg width="64" height="64" viewBox="0 0 64 64" fill="none" xmlns="http://www.w3.org/2000/svg">
<circle cx="32" cy="32" r="32" fill="#1F87FF"/>
<path fill-rule="evenodd" clip-rule="evenodd" d="M25.5519 23.5039C23.1559 23.5039 21.3327 25.3773 21.5113 27.9025C21.6716 30.1663 23.3989 32.1758 25.5519 32.1758C27.7059 32.1758 29.4296 30.1648 29.5925 27.9037C29.7714 25.42 27.9541 23.5039 25.5519 23.5039ZM25.5519 25.3789C24.2378 25.3789 23.2802 26.3356 23.3816 27.7701C23.4909 29.3137 24.6253 30.3008 25.5519 30.3008C26.4776 30.3008 27.611 29.3142 27.7223 27.769C27.8234 26.3655 26.8599 25.3789 25.5519 25.3789Z" fill="white"/>
<path fill-rule="evenodd" clip-rule="evenodd" d="M36.6262 33.8164C32.561 33.8164 28.3685 35.851 27.3059 40.1178C27.0691 41.068 27.6632 42.2539 28.9023 42.2539H44.3506C45.593 42.2539 46.1798 41.065 45.9477 40.1206C44.8848 35.7859 40.683 33.8164 36.6262 33.8164ZM36.6262 35.6914C33.1281 35.6914 30.0332 37.3781 29.1766 40.3789H44.0772C43.2236 37.3292 40.1357 35.6914 36.6262 35.6914Z" fill="white"/>
<path d="M25.5519 33.2627C22.2587 33.2627 18.8027 34.9151 17.9245 38.4383L17.9243 38.4389L17.9242 38.4396C17.7134 39.2904 18.2454 40.3789 19.3832 40.3789H25.9621C26.4799 40.3789 26.8996 39.9592 26.8996 39.4414C26.8996 38.9236 26.4799 38.5039 25.9621 38.5039H19.8596C20.6066 36.3655 22.9074 35.1377 25.5519 35.1377C26.6948 35.1377 27.7173 35.3105 28.6185 35.7234C29.0892 35.9391 29.6456 35.7323 29.8613 35.2616C30.0769 34.7909 29.8702 34.2345 29.3995 34.0188C28.1854 33.4625 26.8782 33.2627 25.5519 33.2627Z" fill="white"/>
<path fill-rule="evenodd" clip-rule="evenodd" d="M36.6261 21.6289C35.2261 21.6289 33.961 22.1569 33.072 23.1048C32.1807 24.0552 31.719 25.3727 31.8238 26.8515C32.0185 29.6005 34.0899 31.9414 36.6261 31.9414C39.1633 31.9414 41.2306 29.5989 41.4284 26.8525C41.6433 23.8753 39.4921 21.6289 36.6261 21.6289ZM34.4397 24.3874C33.934 24.9266 33.6232 25.7186 33.6941 26.719C33.837 28.737 35.3069 30.0664 36.6261 30.0664C37.9444 30.0664 39.4128 28.7374 39.5583 26.7178C39.6948 24.8272 38.4043 23.5039 36.6261 23.5039C35.7041 23.5039 34.9477 23.8458 34.4397 24.3874Z" fill="white"/>
</svg>
